<mxfile host="app.diagrams.net" agent="Mozilla/5.0 (Windows NT 10.0; Win64; x64; rv:128.0) Gecko/20100101 Firefox/128.0" version="24.7.10">
  <diagram name="Page-1" id="TVbX9KgjACldvgUGH_jM">
    <mxGraphModel dx="2261" dy="746" grid="1" gridSize="10" guides="1" tooltips="1" connect="1" arrows="1" fold="1" page="1" pageScale="1" pageWidth="827" pageHeight="1169" math="0" shadow="0">
      <root>
        <mxCell id="0" />
        <mxCell id="1" parent="0" />
        <mxCell id="oGcL695DofoNEhs4g2Zo-1" value="Calc" style="swimlane;fontStyle=0;childLayout=stackLayout;horizontal=1;startSize=26;fillColor=#e1d5e7;horizontalStack=0;resizeParent=1;resizeParentMax=0;resizeLast=0;collapsible=1;marginBottom=0;whiteSpace=wrap;html=1;strokeColor=#9673a6;" parent="1" vertex="1" collapsed="1">
          <mxGeometry x="390" y="270" width="110" height="30" as="geometry">
            <mxRectangle x="390" y="285" width="140" height="78" as="alternateBounds" />
          </mxGeometry>
        </mxCell>
        <mxCell id="oGcL695DofoNEhs4g2Zo-2" value="+ description: type" style="text;strokeColor=none;fillColor=none;align=left;verticalAlign=top;spacingLeft=4;spacingRight=4;overflow=hidden;rotatable=0;points=[[0,0.5],[1,0.5]];portConstraint=eastwest;whiteSpace=wrap;html=1;" parent="oGcL695DofoNEhs4g2Zo-1" vertex="1">
          <mxGeometry y="26" width="140" height="26" as="geometry" />
        </mxCell>
        <mxCell id="oGcL695DofoNEhs4g2Zo-3" value="+ contenu: type" style="text;strokeColor=none;fillColor=none;align=left;verticalAlign=top;spacingLeft=4;spacingRight=4;overflow=hidden;rotatable=0;points=[[0,0.5],[1,0.5]];portConstraint=eastwest;whiteSpace=wrap;html=1;" parent="oGcL695DofoNEhs4g2Zo-1" vertex="1">
          <mxGeometry y="52" width="140" height="26" as="geometry" />
        </mxCell>
        <mxCell id="oGcL695DofoNEhs4g2Zo-5" value="" style="endArrow=block;startArrow=block;endFill=1;startFill=1;html=1;rounded=0;" parent="1" source="oGcL695DofoNEhs4g2Zo-6" target="oGcL695DofoNEhs4g2Zo-1" edge="1">
          <mxGeometry width="160" relative="1" as="geometry">
            <mxPoint x="400" y="130" as="sourcePoint" />
            <mxPoint x="414" y="160" as="targetPoint" />
          </mxGeometry>
        </mxCell>
        <mxCell id="oGcL695DofoNEhs4g2Zo-6" value="Informatique" style="swimlane;fontStyle=0;childLayout=stackLayout;horizontal=1;startSize=26;fillColor=#d5e8d4;horizontalStack=0;resizeParent=1;resizeParentMax=0;resizeLast=0;collapsible=1;marginBottom=0;whiteSpace=wrap;html=1;strokeColor=#82b366;" parent="1" vertex="1" collapsed="1">
          <mxGeometry x="340" y="20" width="210" height="30" as="geometry">
            <mxRectangle x="320" y="10" width="200" height="52" as="alternateBounds" />
          </mxGeometry>
        </mxCell>
        <mxCell id="oGcL695DofoNEhs4g2Zo-7" value="+ description: type" style="text;strokeColor=none;fillColor=none;align=left;verticalAlign=top;spacingLeft=4;spacingRight=4;overflow=hidden;rotatable=0;points=[[0,0.5],[1,0.5]];portConstraint=eastwest;whiteSpace=wrap;html=1;" parent="oGcL695DofoNEhs4g2Zo-6" vertex="1">
          <mxGeometry y="26" width="200" height="26" as="geometry" />
        </mxCell>
        <mxCell id="oGcL695DofoNEhs4g2Zo-10" value="Débuter avec Calc" style="swimlane;fontStyle=0;childLayout=stackLayout;horizontal=1;startSize=40;fillColor=#dae8fc;horizontalStack=0;resizeParent=1;resizeParentMax=0;resizeLast=0;collapsible=1;marginBottom=0;whiteSpace=wrap;html=1;strokeColor=#6c8ebf;" parent="1" vertex="1" collapsed="1">
          <mxGeometry x="-100" y="120" width="170" height="40" as="geometry">
            <mxRectangle x="125" y="240" width="140" height="118" as="alternateBounds" />
          </mxGeometry>
        </mxCell>
        <mxCell id="oGcL695DofoNEhs4g2Zo-11" value="+ niveau : 1" style="text;strokeColor=none;fillColor=none;align=left;verticalAlign=top;spacingLeft=4;spacingRight=4;overflow=hidden;rotatable=0;points=[[0,0.5],[1,0.5]];portConstraint=eastwest;whiteSpace=wrap;html=1;" parent="oGcL695DofoNEhs4g2Zo-10" vertex="1">
          <mxGeometry y="40" width="140" height="26" as="geometry" />
        </mxCell>
        <mxCell id="oGcL695DofoNEhs4g2Zo-12" value="+ field: type" style="text;strokeColor=none;fillColor=none;align=left;verticalAlign=top;spacingLeft=4;spacingRight=4;overflow=hidden;rotatable=0;points=[[0,0.5],[1,0.5]];portConstraint=eastwest;whiteSpace=wrap;html=1;" parent="oGcL695DofoNEhs4g2Zo-10" vertex="1">
          <mxGeometry y="66" width="140" height="26" as="geometry" />
        </mxCell>
        <mxCell id="oGcL695DofoNEhs4g2Zo-13" value="+ field: type" style="text;strokeColor=none;fillColor=none;align=left;verticalAlign=top;spacingLeft=4;spacingRight=4;overflow=hidden;rotatable=0;points=[[0,0.5],[1,0.5]];portConstraint=eastwest;whiteSpace=wrap;html=1;" parent="oGcL695DofoNEhs4g2Zo-10" vertex="1">
          <mxGeometry y="92" width="140" height="26" as="geometry" />
        </mxCell>
        <mxCell id="oGcL695DofoNEhs4g2Zo-14" value="" style="endArrow=block;startArrow=block;endFill=1;startFill=1;html=1;rounded=0;" parent="1" source="oGcL695DofoNEhs4g2Zo-1" target="oGcL695DofoNEhs4g2Zo-10" edge="1">
          <mxGeometry width="160" relative="1" as="geometry">
            <mxPoint x="200" y="190" as="sourcePoint" />
            <mxPoint x="200" y="238" as="targetPoint" />
          </mxGeometry>
        </mxCell>
        <mxCell id="oGcL695DofoNEhs4g2Zo-15" value="Mettre en forme un tableau" style="swimlane;fontStyle=0;childLayout=stackLayout;horizontal=1;startSize=50;fillColor=#dae8fc;horizontalStack=0;resizeParent=1;resizeParentMax=0;resizeLast=0;collapsible=1;marginBottom=0;whiteSpace=wrap;html=1;strokeColor=#6c8ebf;" parent="1" vertex="1" collapsed="1">
          <mxGeometry x="-180" y="410" width="310" height="50" as="geometry">
            <mxRectangle x="350" y="670" width="140" height="128" as="alternateBounds" />
          </mxGeometry>
        </mxCell>
        <mxCell id="oGcL695DofoNEhs4g2Zo-16" value="+ niveau : 2" style="text;strokeColor=none;fillColor=none;align=left;verticalAlign=top;spacingLeft=4;spacingRight=4;overflow=hidden;rotatable=0;points=[[0,0.5],[1,0.5]];portConstraint=eastwest;whiteSpace=wrap;html=1;" parent="oGcL695DofoNEhs4g2Zo-15" vertex="1">
          <mxGeometry y="50" width="140" height="26" as="geometry" />
        </mxCell>
        <mxCell id="oGcL695DofoNEhs4g2Zo-17" value="+ objectifs: type" style="text;strokeColor=none;fillColor=none;align=left;verticalAlign=top;spacingLeft=4;spacingRight=4;overflow=hidden;rotatable=0;points=[[0,0.5],[1,0.5]];portConstraint=eastwest;whiteSpace=wrap;html=1;" parent="oGcL695DofoNEhs4g2Zo-15" vertex="1">
          <mxGeometry y="76" width="140" height="26" as="geometry" />
        </mxCell>
        <mxCell id="oGcL695DofoNEhs4g2Zo-18" value="+ durée: 3-4 heures" style="text;strokeColor=none;fillColor=none;align=left;verticalAlign=top;spacingLeft=4;spacingRight=4;overflow=hidden;rotatable=0;points=[[0,0.5],[1,0.5]];portConstraint=eastwest;whiteSpace=wrap;html=1;" parent="oGcL695DofoNEhs4g2Zo-15" vertex="1">
          <mxGeometry y="102" width="140" height="26" as="geometry" />
        </mxCell>
        <mxCell id="oGcL695DofoNEhs4g2Zo-19" value="Produire des graphiques" style="swimlane;fontStyle=0;childLayout=stackLayout;horizontal=1;startSize=40;fillColor=#dae8fc;horizontalStack=0;resizeParent=1;resizeParentMax=0;resizeLast=0;collapsible=1;marginBottom=0;whiteSpace=wrap;html=1;strokeColor=#6c8ebf;" parent="1" vertex="1" collapsed="1">
          <mxGeometry x="770" y="20" width="230" height="40" as="geometry">
            <mxRectangle x="570" y="240" width="140" height="118" as="alternateBounds" />
          </mxGeometry>
        </mxCell>
        <mxCell id="oGcL695DofoNEhs4g2Zo-20" value="+ niveau : 3" style="text;strokeColor=none;fillColor=none;align=left;verticalAlign=top;spacingLeft=4;spacingRight=4;overflow=hidden;rotatable=0;points=[[0,0.5],[1,0.5]];portConstraint=eastwest;whiteSpace=wrap;html=1;" parent="oGcL695DofoNEhs4g2Zo-19" vertex="1">
          <mxGeometry y="40" width="140" height="26" as="geometry" />
        </mxCell>
        <mxCell id="oGcL695DofoNEhs4g2Zo-21" value="+objectifs :" style="text;strokeColor=none;fillColor=none;align=left;verticalAlign=top;spacingLeft=4;spacingRight=4;overflow=hidden;rotatable=0;points=[[0,0.5],[1,0.5]];portConstraint=eastwest;whiteSpace=wrap;html=1;" parent="oGcL695DofoNEhs4g2Zo-19" vertex="1">
          <mxGeometry y="66" width="140" height="26" as="geometry" />
        </mxCell>
        <mxCell id="oGcL695DofoNEhs4g2Zo-22" value="+ duree : 3-4 heures" style="text;strokeColor=none;fillColor=none;align=left;verticalAlign=top;spacingLeft=4;spacingRight=4;overflow=hidden;rotatable=0;points=[[0,0.5],[1,0.5]];portConstraint=eastwest;whiteSpace=wrap;html=1;" parent="oGcL695DofoNEhs4g2Zo-19" vertex="1">
          <mxGeometry y="92" width="140" height="26" as="geometry" />
        </mxCell>
        <mxCell id="oGcL695DofoNEhs4g2Zo-23" value="" style="endArrow=block;startArrow=block;endFill=1;startFill=1;html=1;rounded=0;" parent="1" source="oGcL695DofoNEhs4g2Zo-1" target="oGcL695DofoNEhs4g2Zo-15" edge="1">
          <mxGeometry width="160" relative="1" as="geometry">
            <mxPoint x="396" y="208" as="sourcePoint" />
            <mxPoint x="270" y="299" as="targetPoint" />
          </mxGeometry>
        </mxCell>
        <mxCell id="oGcL695DofoNEhs4g2Zo-28" value="" style="endArrow=block;startArrow=block;endFill=1;startFill=1;html=1;rounded=0;" parent="1" source="oGcL695DofoNEhs4g2Zo-1" target="oGcL695DofoNEhs4g2Zo-19" edge="1">
          <mxGeometry width="160" relative="1" as="geometry">
            <mxPoint x="540" y="198" as="sourcePoint" />
            <mxPoint x="540" y="280" as="targetPoint" />
          </mxGeometry>
        </mxCell>
        <mxCell id="oGcL695DofoNEhs4g2Zo-29" value="" style="endArrow=block;startArrow=block;endFill=1;startFill=1;html=1;rounded=0;" parent="1" source="oGcL695DofoNEhs4g2Zo-10" target="oGcL695DofoNEhs4g2Zo-32" edge="1">
          <mxGeometry width="160" relative="1" as="geometry">
            <mxPoint x="4" y="500" as="sourcePoint" />
            <mxPoint x="-120" y="650" as="targetPoint" />
          </mxGeometry>
        </mxCell>
        <mxCell id="oGcL695DofoNEhs4g2Zo-30" value="" style="endArrow=block;startArrow=block;endFill=1;startFill=1;html=1;rounded=0;" parent="1" source="oGcL695DofoNEhs4g2Zo-10" target="oGcL695DofoNEhs4g2Zo-36" edge="1">
          <mxGeometry width="160" relative="1" as="geometry">
            <mxPoint x="2" y="433" as="sourcePoint" />
            <mxPoint x="40" y="680" as="targetPoint" />
          </mxGeometry>
        </mxCell>
        <mxCell id="oGcL695DofoNEhs4g2Zo-31" value="" style="endArrow=block;startArrow=block;endFill=1;startFill=1;html=1;rounded=0;" parent="1" source="oGcL695DofoNEhs4g2Zo-10" target="oGcL695DofoNEhs4g2Zo-40" edge="1">
          <mxGeometry width="160" relative="1" as="geometry">
            <mxPoint x="-35" y="433" as="sourcePoint" />
            <mxPoint x="50" y="650" as="targetPoint" />
          </mxGeometry>
        </mxCell>
        <mxCell id="oGcL695DofoNEhs4g2Zo-32" value="Maîtriser l&#39;linterface, gérer les classeurs" style="swimlane;fontStyle=0;childLayout=stackLayout;horizontal=1;startSize=60;fillColor=#ffe6cc;horizontalStack=0;resizeParent=1;resizeParentMax=0;resizeLast=0;collapsible=1;marginBottom=0;whiteSpace=wrap;html=1;strokeColor=#d79b00;" parent="1" vertex="1" collapsed="1">
          <mxGeometry x="-190" y="270" width="110" height="60" as="geometry">
            <mxRectangle x="10" y="400" width="110" height="110" as="alternateBounds" />
          </mxGeometry>
        </mxCell>
        <mxCell id="oGcL695DofoNEhs4g2Zo-33" value="&lt;div&gt;- Vidéo&lt;/div&gt;&lt;div&gt;- Fichiers&lt;br&gt;&lt;/div&gt;" style="text;strokeColor=none;fillColor=none;align=left;verticalAlign=top;spacingLeft=4;spacingRight=4;overflow=hidden;rotatable=0;points=[[0,0.5],[1,0.5]];portConstraint=eastwest;whiteSpace=wrap;html=1;" parent="oGcL695DofoNEhs4g2Zo-32" vertex="1">
          <mxGeometry y="60" width="110" height="50" as="geometry" />
        </mxCell>
        <mxCell id="oGcL695DofoNEhs4g2Zo-36" value="Saisir, modifier, insérer et supprimer des données" style="swimlane;fontStyle=0;childLayout=stackLayout;horizontal=1;startSize=60;fillColor=#ffe6cc;horizontalStack=0;resizeParent=1;resizeParentMax=0;resizeLast=0;collapsible=1;marginBottom=0;whiteSpace=wrap;html=1;strokeColor=#d79b00;" parent="1" vertex="1" collapsed="1">
          <mxGeometry x="60" y="270" width="120" height="60" as="geometry">
            <mxRectangle x="260" y="400" width="130" height="110" as="alternateBounds" />
          </mxGeometry>
        </mxCell>
        <mxCell id="oGcL695DofoNEhs4g2Zo-38" value="&lt;div&gt;- Vidéo&lt;/div&gt;&lt;div&gt;- Fichiers&lt;br&gt;&lt;/div&gt;" style="text;strokeColor=none;fillColor=none;align=left;verticalAlign=top;spacingLeft=4;spacingRight=4;overflow=hidden;rotatable=0;points=[[0,0.5],[1,0.5]];portConstraint=eastwest;whiteSpace=wrap;html=1;" parent="oGcL695DofoNEhs4g2Zo-36" vertex="1">
          <mxGeometry y="60" width="130" height="50" as="geometry" />
        </mxCell>
        <mxCell id="oGcL695DofoNEhs4g2Zo-40" value="Gérer, créer et modifier les feuilles" style="swimlane;fontStyle=0;childLayout=stackLayout;horizontal=1;startSize=60;fillColor=#ffe6cc;horizontalStack=0;resizeParent=1;resizeParentMax=0;resizeLast=0;collapsible=1;marginBottom=0;whiteSpace=wrap;html=1;strokeColor=#d79b00;" parent="1" vertex="1" collapsed="1">
          <mxGeometry x="-70" y="270" width="110" height="60" as="geometry">
            <mxRectangle x="140" y="400" width="110" height="110" as="alternateBounds" />
          </mxGeometry>
        </mxCell>
        <mxCell id="oGcL695DofoNEhs4g2Zo-41" value="&lt;div&gt;- Vidéo&lt;/div&gt;&lt;div&gt;- Fichiers&lt;br&gt;&lt;/div&gt;" style="text;strokeColor=none;fillColor=none;align=left;verticalAlign=top;spacingLeft=4;spacingRight=4;overflow=hidden;rotatable=0;points=[[0,0.5],[1,0.5]];portConstraint=eastwest;whiteSpace=wrap;html=1;" parent="oGcL695DofoNEhs4g2Zo-40" vertex="1">
          <mxGeometry y="60" width="110" height="50" as="geometry" />
        </mxCell>
        <mxCell id="oGcL695DofoNEhs4g2Zo-48" value="Mise en forme d&#39;un tableau" style="swimlane;fontStyle=0;childLayout=stackLayout;horizontal=1;startSize=50;fillColor=#ffe6cc;horizontalStack=0;resizeParent=1;resizeParentMax=0;resizeLast=0;collapsible=1;marginBottom=0;whiteSpace=wrap;html=1;strokeColor=#d79b00;" parent="1" vertex="1" collapsed="1">
          <mxGeometry x="-155" y="500" width="260" height="50" as="geometry">
            <mxRectangle x="-85" y="520" width="130" height="76" as="alternateBounds" />
          </mxGeometry>
        </mxCell>
        <mxCell id="oGcL695DofoNEhs4g2Zo-49" value="scorm" style="text;strokeColor=none;fillColor=none;align=left;verticalAlign=top;spacingLeft=4;spacingRight=4;overflow=hidden;rotatable=0;points=[[0,0.5],[1,0.5]];portConstraint=eastwest;whiteSpace=wrap;html=1;" parent="oGcL695DofoNEhs4g2Zo-48" vertex="1">
          <mxGeometry y="50" width="130" height="26" as="geometry" />
        </mxCell>
        <mxCell id="oGcL695DofoNEhs4g2Zo-57" value="" style="endArrow=block;startArrow=block;endFill=1;startFill=1;html=1;rounded=0;" parent="1" source="oGcL695DofoNEhs4g2Zo-15" target="oGcL695DofoNEhs4g2Zo-48" edge="1">
          <mxGeometry width="160" relative="1" as="geometry">
            <mxPoint x="240" y="778" as="sourcePoint" />
            <mxPoint x="185" y="850" as="targetPoint" />
          </mxGeometry>
        </mxCell>
        <mxCell id="oGcL695DofoNEhs4g2Zo-59" value="Diagramme en barre" style="swimlane;fontStyle=0;childLayout=stackLayout;horizontal=1;startSize=40;fillColor=#ffe6cc;horizontalStack=0;resizeParent=1;resizeParentMax=0;resizeLast=0;collapsible=1;marginBottom=0;whiteSpace=wrap;html=1;strokeColor=#d79b00;" parent="1" vertex="1" collapsed="1">
          <mxGeometry x="710" y="180" width="110" height="40" as="geometry">
            <mxRectangle x="720" y="140" width="110" height="80" as="alternateBounds" />
          </mxGeometry>
        </mxCell>
        <mxCell id="oGcL695DofoNEhs4g2Zo-60" value="&lt;div&gt;- Vidéo&lt;/div&gt;&lt;div&gt;- Fichier&lt;br&gt;&lt;/div&gt;" style="text;strokeColor=none;fillColor=none;align=left;verticalAlign=top;spacingLeft=4;spacingRight=4;overflow=hidden;rotatable=0;points=[[0,0.5],[1,0.5]];portConstraint=eastwest;whiteSpace=wrap;html=1;" parent="oGcL695DofoNEhs4g2Zo-59" vertex="1">
          <mxGeometry y="40" width="110" height="40" as="geometry" />
        </mxCell>
        <mxCell id="oGcL695DofoNEhs4g2Zo-63" value="Diagramme en secteur" style="swimlane;fontStyle=0;childLayout=stackLayout;horizontal=1;startSize=40;fillColor=#ffe6cc;horizontalStack=0;resizeParent=1;resizeParentMax=0;resizeLast=0;collapsible=1;marginBottom=0;whiteSpace=wrap;html=1;strokeColor=#d79b00;" parent="1" vertex="1" collapsed="1">
          <mxGeometry x="840" y="180" width="110" height="40" as="geometry">
            <mxRectangle x="850" y="140" width="110" height="80" as="alternateBounds" />
          </mxGeometry>
        </mxCell>
        <mxCell id="oGcL695DofoNEhs4g2Zo-64" value="&lt;div&gt;- Vidéo&lt;/div&gt;&lt;div&gt;- Fichier&lt;br&gt;&lt;/div&gt;" style="text;strokeColor=none;fillColor=none;align=left;verticalAlign=top;spacingLeft=4;spacingRight=4;overflow=hidden;rotatable=0;points=[[0,0.5],[1,0.5]];portConstraint=eastwest;whiteSpace=wrap;html=1;" parent="oGcL695DofoNEhs4g2Zo-63" vertex="1">
          <mxGeometry y="40" width="110" height="40" as="geometry" />
        </mxCell>
        <mxCell id="oGcL695DofoNEhs4g2Zo-67" value="Courbe" style="swimlane;fontStyle=0;childLayout=stackLayout;horizontal=1;startSize=40;fillColor=#ffe6cc;horizontalStack=0;resizeParent=1;resizeParentMax=0;resizeLast=0;collapsible=1;marginBottom=0;whiteSpace=wrap;html=1;strokeColor=#d79b00;" parent="1" vertex="1" collapsed="1">
          <mxGeometry x="970" y="180" width="100" height="40" as="geometry">
            <mxRectangle x="990" y="140" width="110" height="118" as="alternateBounds" />
          </mxGeometry>
        </mxCell>
        <mxCell id="oGcL695DofoNEhs4g2Zo-68" value="scorm" style="text;strokeColor=none;fillColor=none;align=left;verticalAlign=top;spacingLeft=4;spacingRight=4;overflow=hidden;rotatable=0;points=[[0,0.5],[1,0.5]];portConstraint=eastwest;whiteSpace=wrap;html=1;" parent="oGcL695DofoNEhs4g2Zo-67" vertex="1">
          <mxGeometry y="40" width="110" height="26" as="geometry" />
        </mxCell>
        <mxCell id="oGcL695DofoNEhs4g2Zo-69" value="quiz" style="text;strokeColor=none;fillColor=none;align=left;verticalAlign=top;spacingLeft=4;spacingRight=4;overflow=hidden;rotatable=0;points=[[0,0.5],[1,0.5]];portConstraint=eastwest;whiteSpace=wrap;html=1;" parent="oGcL695DofoNEhs4g2Zo-67" vertex="1">
          <mxGeometry y="66" width="110" height="26" as="geometry" />
        </mxCell>
        <mxCell id="oGcL695DofoNEhs4g2Zo-70" value="fiche" style="text;strokeColor=none;fillColor=none;align=left;verticalAlign=top;spacingLeft=4;spacingRight=4;overflow=hidden;rotatable=0;points=[[0,0.5],[1,0.5]];portConstraint=eastwest;whiteSpace=wrap;html=1;" parent="oGcL695DofoNEhs4g2Zo-67" vertex="1">
          <mxGeometry y="92" width="110" height="26" as="geometry" />
        </mxCell>
        <mxCell id="oGcL695DofoNEhs4g2Zo-72" value="" style="endArrow=block;startArrow=block;endFill=1;startFill=1;html=1;rounded=0;" parent="1" source="oGcL695DofoNEhs4g2Zo-19" target="oGcL695DofoNEhs4g2Zo-59" edge="1">
          <mxGeometry width="160" relative="1" as="geometry">
            <mxPoint x="624" y="358" as="sourcePoint" />
            <mxPoint x="590" y="400" as="targetPoint" />
          </mxGeometry>
        </mxCell>
        <mxCell id="oGcL695DofoNEhs4g2Zo-73" value="" style="endArrow=block;startArrow=block;endFill=1;startFill=1;html=1;rounded=0;" parent="1" source="oGcL695DofoNEhs4g2Zo-19" target="oGcL695DofoNEhs4g2Zo-63" edge="1">
          <mxGeometry width="160" relative="1" as="geometry">
            <mxPoint x="715" y="368" as="sourcePoint" />
            <mxPoint x="660" y="419" as="targetPoint" />
          </mxGeometry>
        </mxCell>
        <mxCell id="oGcL695DofoNEhs4g2Zo-74" value="" style="endArrow=block;startArrow=block;endFill=1;startFill=1;html=1;rounded=0;" parent="1" source="oGcL695DofoNEhs4g2Zo-19" target="oGcL695DofoNEhs4g2Zo-67" edge="1">
          <mxGeometry width="160" relative="1" as="geometry">
            <mxPoint x="767" y="368" as="sourcePoint" />
            <mxPoint x="758" y="410" as="targetPoint" />
          </mxGeometry>
        </mxCell>
        <mxCell id="1R7VQAPE6wTlqesCjZck-1" value="Utiliser les tables dynamiques" style="swimlane;fontStyle=0;childLayout=stackLayout;horizontal=1;startSize=40;fillColor=#dae8fc;horizontalStack=0;resizeParent=1;resizeParentMax=0;resizeLast=0;collapsible=1;marginBottom=0;whiteSpace=wrap;html=1;strokeColor=#6c8ebf;" vertex="1" collapsed="1" parent="1">
          <mxGeometry x="775" y="300" width="230" height="40" as="geometry">
            <mxRectangle x="570" y="240" width="140" height="118" as="alternateBounds" />
          </mxGeometry>
        </mxCell>
        <mxCell id="1R7VQAPE6wTlqesCjZck-2" value="+ niveau : 3" style="text;strokeColor=none;fillColor=none;align=left;verticalAlign=top;spacingLeft=4;spacingRight=4;overflow=hidden;rotatable=0;points=[[0,0.5],[1,0.5]];portConstraint=eastwest;whiteSpace=wrap;html=1;" vertex="1" parent="1R7VQAPE6wTlqesCjZck-1">
          <mxGeometry y="40" width="140" height="26" as="geometry" />
        </mxCell>
        <mxCell id="1R7VQAPE6wTlqesCjZck-3" value="+objectifs :" style="text;strokeColor=none;fillColor=none;align=left;verticalAlign=top;spacingLeft=4;spacingRight=4;overflow=hidden;rotatable=0;points=[[0,0.5],[1,0.5]];portConstraint=eastwest;whiteSpace=wrap;html=1;" vertex="1" parent="1R7VQAPE6wTlqesCjZck-1">
          <mxGeometry y="66" width="140" height="26" as="geometry" />
        </mxCell>
        <mxCell id="1R7VQAPE6wTlqesCjZck-4" value="+ duree : 3-4 heures" style="text;strokeColor=none;fillColor=none;align=left;verticalAlign=top;spacingLeft=4;spacingRight=4;overflow=hidden;rotatable=0;points=[[0,0.5],[1,0.5]];portConstraint=eastwest;whiteSpace=wrap;html=1;" vertex="1" parent="1R7VQAPE6wTlqesCjZck-1">
          <mxGeometry y="92" width="140" height="26" as="geometry" />
        </mxCell>
        <mxCell id="1R7VQAPE6wTlqesCjZck-5" value="1 - Créer une table dynamique simple" style="swimlane;fontStyle=0;childLayout=stackLayout;horizontal=1;startSize=60;fillColor=#ffe6cc;horizontalStack=0;resizeParent=1;resizeParentMax=0;resizeLast=0;collapsible=1;marginBottom=0;whiteSpace=wrap;html=1;strokeColor=#d79b00;" vertex="1" collapsed="1" parent="1">
          <mxGeometry x="635" y="350" width="110" height="60" as="geometry">
            <mxRectangle x="720" y="140" width="110" height="80" as="alternateBounds" />
          </mxGeometry>
        </mxCell>
        <mxCell id="1R7VQAPE6wTlqesCjZck-6" value="&lt;div&gt;- Vidéo&lt;/div&gt;&lt;div&gt;- Fichier&lt;br&gt;&lt;/div&gt;" style="text;strokeColor=none;fillColor=none;align=left;verticalAlign=top;spacingLeft=4;spacingRight=4;overflow=hidden;rotatable=0;points=[[0,0.5],[1,0.5]];portConstraint=eastwest;whiteSpace=wrap;html=1;" vertex="1" parent="1R7VQAPE6wTlqesCjZck-5">
          <mxGeometry y="40" width="110" height="40" as="geometry" />
        </mxCell>
        <mxCell id="1R7VQAPE6wTlqesCjZck-13" value="" style="endArrow=block;startArrow=block;endFill=1;startFill=1;html=1;rounded=0;" edge="1" parent="1" source="1R7VQAPE6wTlqesCjZck-1" target="1R7VQAPE6wTlqesCjZck-5">
          <mxGeometry width="160" relative="1" as="geometry">
            <mxPoint x="629" y="728" as="sourcePoint" />
            <mxPoint x="595" y="770" as="targetPoint" />
          </mxGeometry>
        </mxCell>
        <mxCell id="1R7VQAPE6wTlqesCjZck-14" value="" style="endArrow=block;startArrow=block;endFill=1;startFill=1;html=1;rounded=0;" edge="1" parent="1" source="1R7VQAPE6wTlqesCjZck-1" target="1R7VQAPE6wTlqesCjZck-17">
          <mxGeometry width="160" relative="1" as="geometry">
            <mxPoint x="720" y="738" as="sourcePoint" />
            <mxPoint x="898.181818181818" y="510" as="targetPoint" />
          </mxGeometry>
        </mxCell>
        <mxCell id="1R7VQAPE6wTlqesCjZck-15" value="" style="endArrow=block;startArrow=block;endFill=1;startFill=1;html=1;rounded=0;" edge="1" parent="1" source="1R7VQAPE6wTlqesCjZck-1" target="1R7VQAPE6wTlqesCjZck-19">
          <mxGeometry width="160" relative="1" as="geometry">
            <mxPoint x="772" y="738" as="sourcePoint" />
            <mxPoint x="1000.4545454545455" y="510" as="targetPoint" />
          </mxGeometry>
        </mxCell>
        <mxCell id="1R7VQAPE6wTlqesCjZck-16" value="" style="endArrow=block;startArrow=block;endFill=1;startFill=1;html=1;rounded=0;" edge="1" parent="1" source="oGcL695DofoNEhs4g2Zo-1" target="1R7VQAPE6wTlqesCjZck-1">
          <mxGeometry width="160" relative="1" as="geometry">
            <mxPoint x="390" y="313" as="sourcePoint" />
            <mxPoint x="700" y="310" as="targetPoint" />
          </mxGeometry>
        </mxCell>
        <mxCell id="1R7VQAPE6wTlqesCjZck-17" value="2 - Modifier ou actualiser une table dynamique" style="swimlane;fontStyle=0;childLayout=stackLayout;horizontal=1;startSize=60;fillColor=#ffe6cc;horizontalStack=0;resizeParent=1;resizeParentMax=0;resizeLast=0;collapsible=1;marginBottom=0;whiteSpace=wrap;html=1;strokeColor=#d79b00;" vertex="1" collapsed="1" parent="1">
          <mxGeometry x="665" y="440" width="110" height="60" as="geometry">
            <mxRectangle x="720" y="140" width="110" height="80" as="alternateBounds" />
          </mxGeometry>
        </mxCell>
        <mxCell id="1R7VQAPE6wTlqesCjZck-18" value="&lt;div&gt;- Vidéo&lt;/div&gt;&lt;div&gt;- Fichier&lt;br&gt;&lt;/div&gt;" style="text;strokeColor=none;fillColor=none;align=left;verticalAlign=top;spacingLeft=4;spacingRight=4;overflow=hidden;rotatable=0;points=[[0,0.5],[1,0.5]];portConstraint=eastwest;whiteSpace=wrap;html=1;" vertex="1" parent="1R7VQAPE6wTlqesCjZck-17">
          <mxGeometry y="40" width="110" height="40" as="geometry" />
        </mxCell>
        <mxCell id="1R7VQAPE6wTlqesCjZck-19" value="3 - Extraire des données avec une table dynamique" style="swimlane;fontStyle=0;childLayout=stackLayout;horizontal=1;startSize=60;fillColor=#ffe6cc;horizontalStack=0;resizeParent=1;resizeParentMax=0;resizeLast=0;collapsible=1;marginBottom=0;whiteSpace=wrap;html=1;strokeColor=#d79b00;" vertex="1" collapsed="1" parent="1">
          <mxGeometry x="835" y="480" width="110" height="60" as="geometry">
            <mxRectangle x="720" y="140" width="110" height="80" as="alternateBounds" />
          </mxGeometry>
        </mxCell>
        <mxCell id="1R7VQAPE6wTlqesCjZck-20" value="&lt;div&gt;- Vidéo&lt;/div&gt;&lt;div&gt;- Fichier&lt;br&gt;&lt;/div&gt;" style="text;strokeColor=none;fillColor=none;align=left;verticalAlign=top;spacingLeft=4;spacingRight=4;overflow=hidden;rotatable=0;points=[[0,0.5],[1,0.5]];portConstraint=eastwest;whiteSpace=wrap;html=1;" vertex="1" parent="1R7VQAPE6wTlqesCjZck-19">
          <mxGeometry y="40" width="110" height="40" as="geometry" />
        </mxCell>
        <mxCell id="1R7VQAPE6wTlqesCjZck-21" value="4 - Calculer différents indicateurs statistiques" style="swimlane;fontStyle=0;childLayout=stackLayout;horizontal=1;startSize=60;fillColor=#ffe6cc;horizontalStack=0;resizeParent=1;resizeParentMax=0;resizeLast=0;collapsible=1;marginBottom=0;whiteSpace=wrap;html=1;strokeColor=#d79b00;" vertex="1" collapsed="1" parent="1">
          <mxGeometry x="1010" y="470" width="110" height="60" as="geometry">
            <mxRectangle x="720" y="140" width="110" height="80" as="alternateBounds" />
          </mxGeometry>
        </mxCell>
        <mxCell id="1R7VQAPE6wTlqesCjZck-22" value="&lt;div&gt;- Vidéo&lt;/div&gt;&lt;div&gt;- Fichier&lt;br&gt;&lt;/div&gt;" style="text;strokeColor=none;fillColor=none;align=left;verticalAlign=top;spacingLeft=4;spacingRight=4;overflow=hidden;rotatable=0;points=[[0,0.5],[1,0.5]];portConstraint=eastwest;whiteSpace=wrap;html=1;" vertex="1" parent="1R7VQAPE6wTlqesCjZck-21">
          <mxGeometry y="40" width="110" height="40" as="geometry" />
        </mxCell>
        <mxCell id="1R7VQAPE6wTlqesCjZck-23" value="5 - Croiser des variables" style="swimlane;fontStyle=0;childLayout=stackLayout;horizontal=1;startSize=60;fillColor=#ffe6cc;horizontalStack=0;resizeParent=1;resizeParentMax=0;resizeLast=0;collapsible=1;marginBottom=0;whiteSpace=wrap;html=1;strokeColor=#d79b00;" vertex="1" collapsed="1" parent="1">
          <mxGeometry x="1045" y="350" width="110" height="60" as="geometry">
            <mxRectangle x="720" y="140" width="110" height="80" as="alternateBounds" />
          </mxGeometry>
        </mxCell>
        <mxCell id="1R7VQAPE6wTlqesCjZck-24" value="&lt;div&gt;- Vidéo&lt;/div&gt;&lt;div&gt;- Fichier&lt;br&gt;&lt;/div&gt;" style="text;strokeColor=none;fillColor=none;align=left;verticalAlign=top;spacingLeft=4;spacingRight=4;overflow=hidden;rotatable=0;points=[[0,0.5],[1,0.5]];portConstraint=eastwest;whiteSpace=wrap;html=1;" vertex="1" parent="1R7VQAPE6wTlqesCjZck-23">
          <mxGeometry y="40" width="110" height="40" as="geometry" />
        </mxCell>
        <mxCell id="1R7VQAPE6wTlqesCjZck-25" value="" style="endArrow=block;startArrow=block;endFill=1;startFill=1;html=1;rounded=0;" edge="1" parent="1" source="1R7VQAPE6wTlqesCjZck-1" target="1R7VQAPE6wTlqesCjZck-21">
          <mxGeometry width="160" relative="1" as="geometry">
            <mxPoint x="995" y="350" as="sourcePoint" />
            <mxPoint x="987" y="505" as="targetPoint" />
          </mxGeometry>
        </mxCell>
        <mxCell id="1R7VQAPE6wTlqesCjZck-26" value="" style="endArrow=block;startArrow=block;endFill=1;startFill=1;html=1;rounded=0;" edge="1" parent="1" source="1R7VQAPE6wTlqesCjZck-1" target="1R7VQAPE6wTlqesCjZck-23">
          <mxGeometry width="160" relative="1" as="geometry">
            <mxPoint x="955" y="350" as="sourcePoint" />
            <mxPoint x="1053" y="480" as="targetPoint" />
          </mxGeometry>
        </mxCell>
      </root>
    </mxGraphModel>
  </diagram>
</mxfile>
